<?xml version="1.0" encoding="UTF-8" standalone="no"?>
<!-- Created with Inkscape (http://www.inkscape.org/) -->
<svg
   xmlns:dc="http://purl.org/dc/elements/1.1/"
   xmlns:cc="http://creativecommons.org/ns#"
   xmlns:rdf="http://www.w3.org/1999/02/22-rdf-syntax-ns#"
   xmlns:svg="http://www.w3.org/2000/svg"
   xmlns="http://www.w3.org/2000/svg"
   xmlns:xlink="http://www.w3.org/1999/xlink"
   xmlns:sodipodi="http://sodipodi.sourceforge.net/DTD/sodipodi-0.dtd"
   xmlns:inkscape="http://www.inkscape.org/namespaces/inkscape"
   width="250.65195"
   height="148.37538"
   id="svg2"
   sodipodi:version="0.32"
   inkscape:version="0.46"
   sodipodi:docname="osm_tag.svg"
   inkscape:output_extension="org.inkscape.output.svg.inkscape"
   version="1.0"
   inkscape:export-filename="/home/roger/mis-dibujos/open/key_tag.png"
   inkscape:export-xdpi="90"
   inkscape:export-ydpi="90">
  <defs
     id="defs4">
    <linearGradient
       inkscape:collect="always"
       id="linearGradient3298">
      <stop
         style="stop-color:#000000;stop-opacity:1;"
         offset="0"
         id="stop3300" />
      <stop
         style="stop-color:#000000;stop-opacity:0;"
         offset="1"
         id="stop3302" />
    </linearGradient>
    <linearGradient
       id="linearGradient3248">
      <stop
         style="stop-color:#869b7a;stop-opacity:1;"
         offset="0"
         id="stop3250" />
      <stop
         style="stop-color:#ebedeb;stop-opacity:1;"
         offset="1"
         id="stop3252" />
    </linearGradient>
    <linearGradient
       id="linearGradient3222">
      <stop
         style="stop-color:#000000;stop-opacity:0.29411766;"
         offset="0"
         id="stop3224" />
      <stop
         style="stop-color:#ffffff;stop-opacity:0.29411766;"
         offset="1"
         id="stop3226" />
    </linearGradient>
    <linearGradient
       id="linearGradient3204">
      <stop
         style="stop-color:#ffffff;stop-opacity:1;"
         offset="0"
         id="stop3206" />
      <stop
         style="stop-color:#ffffff;stop-opacity:0;"
         offset="1"
         id="stop3208" />
    </linearGradient>
    <linearGradient
       inkscape:collect="always"
       id="linearGradient3196">
      <stop
         style="stop-color:#000000;stop-opacity:1;"
         offset="0"
         id="stop3198" />
      <stop
         style="stop-color:#000000;stop-opacity:0;"
         offset="1"
         id="stop3200" />
    </linearGradient>
    <linearGradient
       inkscape:collect="always"
       id="linearGradient3476">
      <stop
         style="stop-color:#ffffff;stop-opacity:1;"
         offset="0"
         id="stop3478" />
      <stop
         style="stop-color:#ffffff;stop-opacity:0;"
         offset="1"
         id="stop3480" />
    </linearGradient>
    <linearGradient
       inkscape:collect="always"
       id="linearGradient3461">
      <stop
         style="stop-color:#eeeeec;stop-opacity:0.73239437"
         offset="0"
         id="stop3463" />
      <stop
         style="stop-color:#eeeeec;stop-opacity:0;"
         offset="1"
         id="stop3465" />
    </linearGradient>
    <linearGradient
       id="linearGradient3446">
      <stop
         style="stop-color:#2e3436;stop-opacity:0.49006623;"
         offset="0"
         id="stop3448" />
      <stop
         style="stop-color:#2e3436;stop-opacity:0;"
         offset="1"
         id="stop3450" />
    </linearGradient>
    <linearGradient
       id="linearGradient3418">
      <stop
         style="stop-color:#ffffff;stop-opacity:1;"
         offset="0"
         id="stop3420" />
      <stop
         style="stop-color:#ffffff;stop-opacity:0;"
         offset="1"
         id="stop3422" />
    </linearGradient>
    <inkscape:perspective
       sodipodi:type="inkscape:persp3d"
       inkscape:vp_x="0 : 526.18109 : 1"
       inkscape:vp_y="0 : 1000 : 0"
       inkscape:vp_z="744.09448 : 526.18109 : 1"
       inkscape:persp3d-origin="372.04724 : 350.78739 : 1"
       id="perspective10" />
    <inkscape:perspective
       id="perspective2620"
       inkscape:persp3d-origin="372.04724 : 350.78739 : 1"
       inkscape:vp_z="744.09448 : 526.18109 : 1"
       inkscape:vp_y="0 : 1000 : 0"
       inkscape:vp_x="0 : 526.18109 : 1"
       sodipodi:type="inkscape:persp3d" />
    <linearGradient
       inkscape:collect="always"
       xlink:href="#linearGradient3418"
       id="linearGradient3424"
       x1="390.54507"
       y1="675.73193"
       x2="374.08527"
       y2="675.73193"
       gradientUnits="userSpaceOnUse"
       gradientTransform="translate(138.06066,-2.5606602)" />
    <linearGradient
       inkscape:collect="always"
       xlink:href="#linearGradient3461"
       id="linearGradient3467"
       x1="224.71875"
       y1="673.85938"
       x2="241.15625"
       y2="673.85938"
       gradientUnits="userSpaceOnUse"
       gradientTransform="matrix(-1.0005934,0,0,0.8305951,693.2951,125.50891)" />
    <linearGradient
       inkscape:collect="always"
       xlink:href="#linearGradient3476"
       id="linearGradient3482"
       x1="426"
       y1="672.40094"
       x2="399.15915"
       y2="672.40094"
       gradientUnits="userSpaceOnUse"
       gradientTransform="matrix(-1.0005934,0,0,0.8305951,693.29508,125.09361)" />
    <linearGradient
       inkscape:collect="always"
       xlink:href="#linearGradient3196"
       id="linearGradient3202"
       x1="218.875"
       y1="673.67468"
       x2="234.63577"
       y2="673.67468"
       gradientUnits="userSpaceOnUse"
       gradientTransform="matrix(-1.0005934,0,0,0.8305951,693.29508,125.50891)" />
    <linearGradient
       inkscape:collect="always"
       xlink:href="#linearGradient3204"
       id="linearGradient3210"
       x1="384.89655"
       y1="664.67468"
       x2="366.89655"
       y2="665.17468"
       gradientUnits="userSpaceOnUse"
       gradientTransform="matrix(-1.0005934,0,0,0.8305951,693.29508,125.50891)" />
    <linearGradient
       inkscape:collect="always"
       xlink:href="#linearGradient3222"
       id="linearGradient3228"
       x1="397.75"
       y1="671.48718"
       x2="411"
       y2="671.48718"
       gradientUnits="userSpaceOnUse" />
    <radialGradient
       inkscape:collect="always"
       xlink:href="#linearGradient3248"
       id="radialGradient3282"
       gradientUnits="userSpaceOnUse"
       gradientTransform="matrix(0.1257111,-9.2806661e-8,1.3101233e-7,0.1782947,431.96907,436.64723)"
       spreadMethod="reflect"
       cx="498.12442"
       cy="542.14819"
       fx="498.12442"
       fy="542.14819"
       r="33.96875" />
    <radialGradient
       inkscape:collect="always"
       xlink:href="#linearGradient3248"
       id="radialGradient3284"
       gradientUnits="userSpaceOnUse"
       gradientTransform="matrix(0.1257111,-9.2806661e-8,1.3101233e-7,0.1782947,427.72643,436.29368)"
       spreadMethod="reflect"
       cx="498.12442"
       cy="542.14819"
       fx="498.12442"
       fy="542.14819"
       r="33.96875" />
    <radialGradient
       inkscape:collect="always"
       xlink:href="#linearGradient3248"
       id="radialGradient3289"
       gradientUnits="userSpaceOnUse"
       gradientTransform="matrix(-0.1059809,5.6239736e-2,9.6089594e-2,0.1247739,262.00367,557.04815)"
       spreadMethod="reflect"
       cx="498.12442"
       cy="542.14819"
       fx="498.12442"
       fy="542.14819"
       r="33.96875" />
    <radialGradient
       inkscape:collect="always"
       xlink:href="#linearGradient3248"
       id="radialGradient3292"
       gradientUnits="userSpaceOnUse"
       gradientTransform="matrix(-0.1059809,5.6239736e-2,9.6089594e-2,0.1247739,258.61745,559.19361)"
       spreadMethod="reflect"
       cx="498.12442"
       cy="542.14819"
       fx="498.12442"
       fy="542.14819"
       r="33.96875" />
    <linearGradient
       inkscape:collect="always"
       xlink:href="#linearGradient3298"
       id="linearGradient3304"
       x1="400"
       y1="631.48718"
       x2="403.375"
       y2="626.98718"
       gradientUnits="userSpaceOnUse"
       gradientTransform="matrix(-1.0005934,0,0,0.8305951,693.2951,125.50891)" />
    <filter
       inkscape:collect="always"
       id="filter3408">
      <feGaussianBlur
         inkscape:collect="always"
         stdDeviation="4.1410521"
         id="feGaussianBlur3410" />
    </filter>
    <linearGradient
       inkscape:collect="always"
       xlink:href="#linearGradient3222"
       id="linearGradient3426"
       gradientUnits="userSpaceOnUse"
       x1="397.75"
       y1="671.48718"
       x2="411"
       y2="671.48718" />
    <radialGradient
       inkscape:collect="always"
       xlink:href="#linearGradient3248"
       id="radialGradient3428"
       gradientUnits="userSpaceOnUse"
       gradientTransform="matrix(0.105918,6.771017e-2,-9.6032607e-2,0.1502223,318.2011,-271.76854)"
       spreadMethod="reflect"
       cx="498.12442"
       cy="542.14819"
       fx="498.12442"
       fy="542.14819"
       r="33.96875" />
    <radialGradient
       inkscape:collect="always"
       xlink:href="#linearGradient3248"
       id="radialGradient3430"
       gradientUnits="userSpaceOnUse"
       gradientTransform="matrix(0.105918,6.771017e-2,-9.6032607e-2,0.1502223,536.03564,318.55428)"
       spreadMethod="reflect"
       cx="498.12442"
       cy="542.14819"
       fx="498.12442"
       fy="542.14819"
       r="33.96875" />
    <linearGradient
       inkscape:collect="always"
       xlink:href="#linearGradient3298"
       id="linearGradient3432"
       gradientUnits="userSpaceOnUse"
       x1="400"
       y1="631.48718"
       x2="403.375"
       y2="626.98718"
       gradientTransform="translate(105,-201)" />
    <radialGradient
       inkscape:collect="always"
       xlink:href="#linearGradient3248"
       id="radialGradient3434"
       gradientUnits="userSpaceOnUse"
       gradientTransform="matrix(0.105918,6.771017e-2,-9.6032607e-2,0.1502223,536.03564,318.55428)"
       spreadMethod="reflect"
       cx="498.12442"
       cy="542.14819"
       fx="498.12442"
       fy="542.14819"
       r="33.96875" />
    <radialGradient
       inkscape:collect="always"
       xlink:href="#linearGradient3248"
       id="radialGradient2441"
       gradientUnits="userSpaceOnUse"
       gradientTransform="matrix(-0.1059809,5.6239736e-2,9.6089594e-2,0.1247739,262.00367,557.04815)"
       spreadMethod="reflect"
       cx="498.12442"
       cy="542.14819"
       fx="498.12442"
       fy="542.14819"
       r="33.96875" />
  </defs>
  <sodipodi:namedview
     id="base"
     pagecolor="#ffffff"
     bordercolor="#666666"
     borderopacity="1.0"
     inkscape:pageopacity="0.0"
     inkscape:pageshadow="2"
     inkscape:zoom="1"
     inkscape:cx="147.4572"
     inkscape:cy="150.2881"
     inkscape:document-units="px"
     inkscape:current-layer="layer1"
     showgrid="false"
     inkscape:window-width="1272"
     inkscape:window-height="944"
     inkscape:window-x="0"
     inkscape:window-y="26" />
  <metadata
     id="metadata7">
    <rdf:RDF>
      <cc:Work
         rdf:about="">
        <dc:format>image/svg+xml</dc:format>
        <dc:type
           rdf:resource="http://purl.org/dc/dcmitype/StillImage" />
      </cc:Work>
    </rdf:RDF>
  </metadata>
  <g
     inkscape:label="Capa 1"
     inkscape:groupmode="layer"
     id="layer1"
     transform="translate(-221.21875,-592.90586)">
    <path
       id="path3306"
       d="M 247.15625,618.4375 C 235.28482,618.4375 225.71875,628.00357 225.71875,639.875 L 225.71875,719.875 C 225.71875,731.74646 235.28482,741.28125 247.15625,741.28125 L 380.71875,741.28125 C 386.33922,741.07073 393.28268,735.55286 400.34375,727.84375 C 400.3975,727.7942 400.44529,727.73615 400.5,727.6875 C 415.57419,714.28444 434.42879,694.91421 434.15625,679.875 C 434.22477,665.97209 415.37539,645.8754 400.71875,632.25 C 393.53522,624.33595 386.43408,618.65157 380.71875,618.4375 L 247.15625,618.4375 z M 412.75,670.28125 C 417.06647,670.28124 420.5625,673.80854 420.5625,678.125 C 420.56251,682.44148 417.06646,685.9375 412.75,685.9375 C 408.43355,685.93749 404.9375,682.44146 404.9375,678.125 C 404.93751,673.80856 408.43354,670.28125 412.75,670.28125 z"
       style="opacity:1;fill:#888a85;fill-opacity:1;fill-rule:nonzero;stroke:none;stroke-width:0.1;stroke-linecap:round;stroke-linejoin:bevel;stroke-miterlimit:4;stroke-dashoffset:0;stroke-opacity:1;filter:url(#filter3408)"
       transform="matrix(-1.0005934,0,0,0.8305951,693.2951,125.50891)" />
    <path
       style="opacity:1;fill:#75ed3d;fill-opacity:1;fill-rule:nonzero;stroke:none;stroke-width:0.1;stroke-linecap:round;stroke-linejoin:bevel;stroke-miterlimit:4;stroke-dashoffset:0;stroke-opacity:1"
       d="M 450.49485,634.19649 C 462.37332,634.19649 471.94507,642.14203 471.94507,652.00238 L 471.94507,718.44998 C 471.94507,728.31036 462.37332,736.22991 450.49485,736.22991 L 316.85309,736.22991 C 311.22929,736.05505 304.28171,731.47194 297.21645,725.06879 C 297.16266,725.02763 297.11484,724.97942 297.0601,724.93901 C 281.97697,713.80649 263.11118,697.71768 263.38388,685.22618 C 263.31532,673.67849 282.17589,656.98628 296.84122,645.66909 C 304.02902,639.09572 311.13437,634.3743 316.85309,634.19649 L 450.49485,634.19649 z M 284.80283,677.25766 C 280.4838,677.25765 276.9857,680.18741 276.9857,683.77264 C 276.98569,687.35789 280.48381,690.26166 284.80283,690.26166 C 289.12184,690.26166 292.61997,687.35787 292.61997,683.77264 C 292.61996,680.18743 289.12185,677.25766 284.80283,677.25766 z"
       id="rect2630" />
    <rect
       ry="12.140771"
       y="641.60925"
       x="-465.0506"
       height="87.427505"
       width="157.0576"
       id="rect3454"
       style="opacity:1;fill:#72e03e;fill-opacity:1;fill-rule:nonzero;stroke:none;stroke-width:0.1;stroke-linecap:round;stroke-linejoin:bevel;stroke-miterlimit:4;stroke-dasharray:none;stroke-dashoffset:0;stroke-opacity:1"
       transform="scale(-1,1)" />
    <rect
       style="opacity:1;fill:#eeeeec;fill-opacity:1;fill-rule:nonzero;stroke:none;stroke-width:0.1;stroke-linecap:round;stroke-linejoin:bevel;stroke-miterlimit:4;stroke-dasharray:none;stroke-dashoffset:0;stroke-opacity:1"
       id="rect2636"
       width="136.04515"
       height="69.354691"
       x="-454.54437"
       y="651.16107"
       ry="2.2693875"
       transform="scale(-1,1)" />
    <path
       style="opacity:1;fill:url(#linearGradient3467);fill-opacity:1;fill-rule:nonzero;stroke:none;stroke-width:0.1;stroke-linecap:round;stroke-linejoin:bevel;stroke-miterlimit:4;stroke-dashoffset:0;stroke-opacity:1"
       d="M 450.49485,634.19649 C 462.37332,634.19649 471.94507,642.14203 471.94507,652.00238 L 471.94507,718.44998 C 471.94507,728.31036 462.37332,736.22991 450.49485,736.22991 L 446.49248,736.22991 C 458.37095,736.22991 467.9427,728.31036 467.9427,718.44998 L 467.9427,652.00238 C 467.9427,642.14203 458.37095,634.19649 446.49248,634.19649 L 450.49485,634.19649 z"
       id="path3456" />
    <path
       style="opacity:1;fill:#72e03e;fill-opacity:1;fill-rule:nonzero;stroke:none;stroke-width:0.1;stroke-linecap:round;stroke-linejoin:bevel;stroke-miterlimit:4;stroke-dashoffset:0;stroke-opacity:1"
       d="M 299.06129,653.68952 L 299.06129,714.32297 C 297.95795,713.46097 296.83766,712.51071 295.71555,711.49375 C 295.67848,711.46534 295.6595,711.44376 295.62175,711.41588 C 285.22049,703.73897 272.20116,692.64628 272.38922,684.0322 C 272.34192,676.06898 285.35226,664.55662 295.46541,656.75234 C 296.67524,655.64594 297.8713,654.61678 299.06129,653.68952 z M 284.80283,677.25766 C 280.4838,677.25765 276.9857,680.18741 276.9857,683.77264 C 276.98569,687.35789 280.48381,690.26166 284.80283,690.26166 C 289.12184,690.26166 292.61997,687.35787 292.61997,683.77264 C 292.61996,680.18743 289.12185,677.25766 284.80283,677.25766 z"
       id="path3469" />
    <path
       id="path3474"
       d="M 299.06129,653.27423 L 299.06129,713.8988 C 297.95795,713.0368 296.84118,712.10558 295.71908,711.08862 C 295.682,711.06024 295.64902,711.027 295.61126,710.99912 C 285.21001,703.3222 272.20026,692.22743 272.38832,683.61336 C 272.34103,675.65013 285.34719,664.13926 295.46033,656.33499 C 296.67017,655.22857 297.8713,654.20149 299.06129,653.27423 z"
       style="opacity:1;fill:none;fill-opacity:1;fill-rule:nonzero;stroke:url(#linearGradient3482);stroke-width:1.82328057;stroke-linecap:round;stroke-linejoin:bevel;stroke-miterlimit:4;stroke-dasharray:none;stroke-dashoffset:0;stroke-opacity:1" />
    <path
       style="fill:none;fill-rule:evenodd;stroke:url(#linearGradient3210);stroke-width:0.91164029px;stroke-linecap:butt;stroke-linejoin:miter;stroke-opacity:1"
       d="M 319.19823,641.50547 C 319.19823,641.50547 312.89836,641.91663 309.1923,649.39612 C 308.57377,651.28555 308.58474,717.74831 308.81708,719.06228 C 309.04179,725.94794 318.07256,729.44472 318.07256,729.44472"
       id="path2414"
       sodipodi:nodetypes="cccc" />
    <path
       sodipodi:nodetypes="cccc"
       id="path2416"
       d="M 453.2562,641.09017 C 453.2562,641.09017 459.55607,641.50134 463.26213,648.98082 C 463.88066,650.87025 463.86969,717.33301 463.63735,718.64699 C 463.41264,725.53264 454.38186,729.02942 454.38186,729.02942"
       style="fill:none;fill-opacity:1;fill-rule:evenodd;stroke:url(#linearGradient3202);stroke-width:0.91164029px;stroke-linecap:butt;stroke-linejoin:miter;stroke-opacity:1" />
    <path
       transform="matrix(-1.34506,0,0,1.1165377,828.96161,-66.39402)"
       d="M 411,671.48718 A 6.625,6.625 0 1 1 397.75,671.48718 A 6.625,6.625 0 1 1 411,671.48718 z"
       sodipodi:ry="6.625"
       sodipodi:rx="6.625"
       sodipodi:cy="671.48718"
       sodipodi:cx="404.375"
       id="path3214"
       style="opacity:1;fill:none;fill-opacity:1;fill-rule:nonzero;stroke:url(#linearGradient3228);stroke-width:2;stroke-linecap:round;stroke-linejoin:bevel;stroke-miterlimit:4;stroke-dasharray:none;stroke-dashoffset:0;stroke-opacity:1"
       sodipodi:type="arc" />
    <path
       style="fill:url(#radialGradient3292);fill-opacity:1;fill-rule:nonzero;stroke:none;stroke-width:3.3786025;stroke-linecap:round;stroke-linejoin:bevel;stroke-miterlimit:4;stroke-dasharray:none;stroke-dashoffset:0;stroke-opacity:1"
       d="M 249.28177,620.10233 C 262.44084,620.15731 277.0802,627.34556 286.55387,639.64727 C 289.0388,642.87398 291.00444,646.22815 292.43236,649.58846 L 288.33618,652.98871 C 286.89168,649.33053 284.77406,645.63746 282.01993,642.06119 C 270.28545,626.82382 251.28751,619.41059 237.46226,626.74709 C 223.63701,634.08363 222.06936,652.41652 233.80384,667.6539 C 245.5383,682.89126 266.22476,689.39604 280.05001,682.05954 C 282.38259,680.82173 284.31617,679.29616 285.86596,677.54318 L 288.77394,678.19208 L 289.64946,678.63333 L 289.99341,679.20437 L 290.05595,679.23032 C 288.09824,681.67201 285.63078,683.7551 282.61403,685.35596 C 267.31731,693.47333 242.45065,687.15728 229.2699,670.04186 C 216.08913,652.92647 219.6328,631.56805 234.9295,623.45067 C 239.23172,621.16766 244.13256,620.08082 249.28177,620.10233 z"
       id="path3230" />
    <path
       style="fill:url(#radialGradient3289);fill-opacity:1;fill-rule:nonzero;stroke:none;stroke-width:3.3786025;stroke-linecap:round;stroke-linejoin:bevel;stroke-miterlimit:4;stroke-dasharray:none;stroke-dashoffset:0;stroke-opacity:1"
       d="M 252.69004,617.97393 C 265.8491,618.02892 280.45722,625.21716 289.93087,637.51887 C 292.29929,640.59429 294.18273,643.76562 295.59048,646.96689 L 291.52557,650.34119 C 290.08891,646.85005 288.05426,643.3168 285.4282,639.90684 C 273.69374,624.66942 254.69578,617.28218 240.87053,624.61869 C 227.0453,631.9552 225.47763,650.26216 237.21211,665.49955 C 248.94656,680.73692 269.63304,687.24169 283.45829,679.90518 C 284.67718,679.25836 285.76907,678.546 286.77275,677.75082 L 288.77394,678.19208 L 289.64946,678.63333 L 289.99341,679.20437 L 290.86893,679.80136 C 289.43031,681.09417 287.81513,682.25959 285.99104,683.22756 C 270.6943,691.34495 245.85892,685.02888 232.67817,667.91346 C 219.4974,650.79804 223.00981,629.41369 238.30651,621.29631 C 242.60872,619.01331 247.54083,617.95242 252.69004,617.97393 z M 298.0607,667.44625 C 297.32036,670.6751 296.0009,673.68165 294.08959,676.29728 L 298.0607,667.44625 z"
       id="path3262" />
    <path
       style="opacity:0.35915491;fill:url(#linearGradient3304);fill-opacity:1;fill-rule:evenodd;stroke:none;stroke-width:1px;stroke-linecap:butt;stroke-linejoin:miter;stroke-opacity:1"
       d="M 295.43414,646.69668 C 294.93384,647.42346 287.92969,653.1338 287.92969,653.1338 L 286.55387,648.56552 L 293.6831,643.58195 L 295.43414,646.69668 z"
       id="path3296" />
    <path
       id="path3412"
       d="M 252.69004,617.97393 C 265.8491,618.02892 280.45722,625.21716 289.93087,637.51887 C 292.29929,640.59429 294.18273,643.76562 295.59048,646.96689 L 291.52557,650.34119 C 290.08891,646.85005 288.05426,643.3168 285.4282,639.90684 C 273.69374,624.66942 254.69578,617.28218 240.87053,624.61869 C 227.0453,631.9552 225.47763,650.26216 237.21211,665.49955 C 248.94656,680.73692 269.63304,687.24169 283.45829,679.90518 C 284.67718,679.25836 285.76907,678.546 286.77275,677.75082 L 288.77394,678.19208 L 289.64946,678.63333 L 289.99341,679.20437 L 290.86893,679.80136 C 289.43031,681.09417 287.81513,682.25959 285.99104,683.22756 C 270.6943,691.34495 245.85892,685.02888 232.67817,667.91346 C 219.4974,650.79804 223.00981,629.41369 238.30651,621.29631 C 242.60872,619.01331 247.54083,617.95242 252.69004,617.97393 z M 298.0607,667.44625 C 297.32036,670.6751 296.0009,673.68165 294.08959,676.29728 L 298.0607,667.44625 z"
       style="fill:url(#radialGradient2441);fill-opacity:1;fill-rule:nonzero;stroke:none;stroke-width:3.3786025;stroke-linecap:round;stroke-linejoin:bevel;stroke-miterlimit:4;stroke-dasharray:none;stroke-dashoffset:0;stroke-opacity:1" />
    <text
       xml:space="preserve"
       style="font-size:48px;font-style:normal;font-weight:bold;fill:#007400;fill-opacity:1;stroke:none;stroke-width:1px;stroke-linecap:butt;stroke-linejoin:miter;stroke-opacity:1;font-family:Bitstream Vera Sans;-inkscape-font-specification:Bitstream Vera Sans Bold"
       x="325.21875"
       y="702.28125"
       id="text2443"><tspan
         sodipodi:role="line"
         id="tspan2445"
         x="325.21875"
         y="702.28125">OSM</tspan></text>
  </g>
</svg>
