<?xml version="1.0" encoding="UTF-8" standalone="no"?>
<svg
   xmlns:dc="http://purl.org/dc/elements/1.1/"
   xmlns:cc="http://creativecommons.org/ns#"
   xmlns:rdf="http://www.w3.org/1999/02/22-rdf-syntax-ns#"
   xmlns:svg="http://www.w3.org/2000/svg"
   xmlns="http://www.w3.org/2000/svg"
   xmlns:sodipodi="http://sodipodi.sourceforge.net/DTD/sodipodi-0.dtd"
   xmlns:inkscape="http://www.inkscape.org/namespaces/inkscape"
   version="1.0"
   height="256"
   width="256"
   viewBox="0 0 256 256"
   id="svg2"
   inkscape:version="0.91 r13725"
   sodipodi:docname="all.svg">
  <defs
     id="defs14" />
  <sodipodi:namedview
     pagecolor="#ffffff"
     bordercolor="#666666"
     borderopacity="1"
     objecttolerance="10"
     gridtolerance="10"
     guidetolerance="10"
     inkscape:pageopacity="0"
     inkscape:pageshadow="2"
     inkscape:window-width="2026"
     inkscape:window-height="1218"
     id="namedview12"
     showgrid="false"
     inkscape:zoom="2.6074563"
     inkscape:cx="39.851581"
     inkscape:cy="119.48977"
     inkscape:window-x="0"
     inkscape:window-y="49"
     inkscape:window-maximized="0"
     inkscape:current-layer="svg2" />
  <title
     id="title4">OpenStreetMap node element icon</title>
  <metadata
     id="metadata6">
    <rdf:RDF>
      <cc:Work
         rdf:about="">
        <dc:format>image/svg+xml</dc:format>
        <dc:type
           rdf:resource="http://purl.org/dc/dcmitype/StillImage" />
        <dc:title>OpenStreetMap node element icon</dc:title>
        <cc:license
           rdf:resource="http://creativecommons.org/licenses/by/3.0/" />
        <dc:date>2014-03-10</dc:date>
        <dc:creator>
          <cc:Agent>
            <dc:title>https://wiki.openstreetmap.org/wiki/User:Moresby</dc:title>
          </cc:Agent>
        </dc:creator>
      </cc:Work>
      <cc:License
         rdf:about="http://creativecommons.org/licenses/by/3.0/">
        <cc:permits
           rdf:resource="http://creativecommons.org/ns#Reproduction" />
        <cc:permits
           rdf:resource="http://creativecommons.org/ns#Distribution" />
        <cc:requires
           rdf:resource="http://creativecommons.org/ns#Notice" />
        <cc:requires
           rdf:resource="http://creativecommons.org/ns#Attribution" />
        <cc:permits
           rdf:resource="http://creativecommons.org/ns#DerivativeWorks" />
        <cc:requires
           rdf:resource="http://creativecommons.org/ns#ShareAlike" />
      </cc:License>
    </rdf:RDF>
  </metadata>
  <g
     id="g8"
     style="stroke:#000000">
    <rect
       width="242"
       height="242"
       stroke="#d0d0d0"
       fill="#f0f0f0"
       stroke-width="12"
       ry="32"
       x="7"
       y="7"
       id="rect10"
       style="stroke:#000000" />
  </g>
  <g
     style="font-style:normal;font-variant:normal;font-weight:normal;font-stretch:normal;font-size:451.54019165px;line-height:125%;font-family:'Nimbus Roman No9 L';-inkscape-font-specification:'Nimbus Roman No9 L';letter-spacing:0px;word-spacing:0px;fill:#000000;fill-opacity:1;stroke:#000000;stroke-width:1px;stroke-linecap:butt;stroke-linejoin:miter;stroke-opacity:1"
     id="text3346">
    <path
       d="m 123.71037,137.7081 0.45154,7.67618 c 0.90308,9.48235 -1.80616,22.57701 -7.67618,37.92938 -3.16079,8.12772 -4.96695,15.80391 -4.96695,20.77085 0,9.0308 7.22465,16.70699 15.80391,16.70699 9.48234,0 17.61007,-8.57927 17.61007,-18.06161 0,-2.70924 -1.35462,-8.57927 -3.61232,-14.44929 -5.87003,-15.80391 -9.03081,-32.96243 -9.03081,-50.5725 l 0,-3.16078 3.16078,1.35462 c 9.93389,4.06386 19.41623,12.19158 31.60782,27.09241 11.2885,13.99775 18.96468,19.41623 27.09241,19.41623 9.48234,0 15.8039,-6.7731 15.8039,-16.70699 0,-11.74004 -6.7731,-16.70699 -26.64087,-19.86777 -17.61006,-2.70924 -32.05935,-8.12772 -43.7994,-15.35236 l -3.61232,-2.2577 c 22.12547,-12.64313 30.70474,-15.80391 50.5725,-18.96469 17.15853,-2.70924 23.02855,-7.67619 23.02855,-18.96469 0,-10.385425 -6.7731,-17.610068 -16.25544,-17.610068 -6.77311,0 -14.44929,5.870023 -25.28625,18.513148 -11.28851,13.54621 -22.57701,23.48009 -32.5109,28.89857 l -3.16078,1.80616 0,-11.74004 c 0,-10.836966 2.70924,-23.480092 7.67619,-37.477838 2.70924,-8.579263 4.5154,-15.803906 4.5154,-20.770848 0,-9.482344 -7.22465,-16.706988 -16.25545,-16.706988 -9.0308,0 -15.80391,6.773103 -15.80391,15.803907 0,5.418482 1.80616,13.546206 4.51541,23.02855 4.5154,14.900826 6.7731,28.898577 6.7731,41.090157 l 0,5.87002 C 106.55184,111.51877 97.972577,104.29413 83.071751,88.038679 74.040947,77.201714 68.622465,73.589393 61.397822,73.589393 c -8.579264,0 -15.352367,7.224643 -15.352367,16.255447 0,10.83696 9.030804,17.15853 30.704733,21.22239 16.706987,3.16078 30.253192,7.67618 38.832452,13.5462 l 4.96695,3.16079 c -18.51315,11.2885 -25.737794,13.99774 -46.508643,18.0616 -20.319308,3.61232 -27.995492,9.03081 -27.995492,20.31931 0,9.93389 6.321563,15.80391 16.255447,15.80391 7.224643,0 11.288505,-2.2577 18.964688,-10.83697 13.094666,-14.90082 15.352367,-17.15852 18.96469,-20.3193 4.5154,-4.06387 7.67618,-6.32157 23.48009,-16.25545 l 0,3.16078 z"
       style=""
       id="path3351" />
  </g>
</svg>
